<?xml version="1.0" standalone="no"?>
<!DOCTYPE svg PUBLIC "-//W3C//DTD SVG 20010904//EN"
 "http://www.w3.org/TR/2001/REC-SVG-20010904/DTD/svg10.dtd">
<svg version="1.0" xmlns="http://www.w3.org/2000/svg"
 width="1189.000000pt" height="771.000000pt" viewBox="0 0 1189.000000 771.000000"
 preserveAspectRatio="xMidYMid meet">
<metadata>
Created by potrace 1.16, written by Peter Selinger 2001-2019
</metadata>
<g transform="translate(0.000000,771.000000) scale(0.100000,-0.100000)"
fill="#000000" stroke="none">
<path d="M20 3855 l0 -3835 5925 0 5925 0 0 3835 0 3835 -5925 0 -5925 0 0
-3835z m11840 0 l0 -3825 -5915 0 -5915 0 0 3825 0 3825 5915 0 5915 0 0
-3825z"/>
<path d="M2665 7473 c-140 -18 -457 -94 -645 -155 -371 -119 -777 -337 -1013
-543 -286 -249 -510 -623 -595 -990 -45 -195 -56 -308 -56 -565 0 -268 13
-399 64 -640 38 -181 164 -619 195 -681 43 -84 52 -89 154 -89 49 0 96 3 105
6 25 9 20 59 -18 185 -150 497 -225 1099 -186 1490 44 430 208 816 463 1085
103 109 286 267 397 343 278 190 825 427 1158 502 83 19 102 26 102 41 0 15
-8 18 -47 17 -27 -1 -61 -4 -78 -6z"/>
<path d="M3006 7230 c-37 -5 -99 -14 -137 -20 -64 -11 -69 -14 -69 -37 0 -35
15 -58 90 -144 36 -41 95 -115 130 -163 63 -87 64 -88 99 -82 492 77 766 78
1281 5 184 -26 379 -66 406 -84 12 -8 35 -39 53 -69 17 -30 40 -60 51 -66 20
-11 20 -8 20 173 0 102 -3 199 -6 216 -10 47 -53 87 -115 105 -150 46 -570
117 -894 152 -171 18 -797 28 -909 14z"/>
<path d="M2449 7125 c-163 -45 -448 -170 -653 -287 -118 -68 -300 -205 -402
-304 -82 -80 -193 -220 -281 -356 -61 -92 -77 -131 -69 -162 11 -43 202 -176
381 -263 81 -40 194 -80 198 -71 1 1 19 37 39 78 51 102 177 267 310 405 249
260 714 542 861 522 23 -3 67 -25 112 -55 51 -34 93 -54 131 -62 30 -7 58 -10
60 -7 10 10 -439 514 -501 562 -41 31 -73 31 -186 0z"/>
<path d="M5050 6969 c-7 -13 -10 -74 -8 -171 3 -173 4 -174 106 -203 95 -27
667 -234 822 -297 301 -124 447 -161 689 -174 119 -7 123 -7 113 12 -25 47
-99 95 -432 284 -195 111 -384 219 -420 240 -36 21 -200 93 -365 159 -165 66
-327 131 -360 145 -76 32 -130 34 -145 5z"/>
<path d="M3837 6174 c-4 -4 -127 -10 -274 -14 l-268 -8 -158 -41 c-87 -23
-175 -50 -195 -60 -138 -69 -337 -180 -390 -218 -78 -55 -122 -113 -122 -160
0 -90 49 -110 304 -129 105 -8 252 -21 326 -29 217 -23 230 -13 212 148 -7 56
-12 125 -12 153 0 106 -46 173 -140 201 -86 26 -82 33 23 33 l96 0 27 -45 c33
-57 59 -142 68 -220 4 -33 17 -94 29 -135 20 -68 22 -72 28 -45 4 17 8 50 9
75 2 30 5 16 10 -45 4 -49 10 -108 14 -131 l7 -40 105 -14 c122 -15 412 -9
694 15 202 17 1213 21 1485 5 182 -10 672 -61 878 -91 593 -85 1056 -275 1159
-473 l20 -39 -24 7 c-55 15 -108 17 -182 7 -84 -12 -103 -21 -117 -59 l-9 -24
-30 32 c-30 32 -32 32 -88 25 -31 -4 -95 -9 -142 -11 -91 -3 -110 -14 -110
-61 0 -32 -12 -29 -61 18 -39 38 -46 40 -83 35 -96 -14 -249 -26 -351 -26
-337 -1 -450 -58 -431 -219 16 -137 121 -274 246 -321 23 -9 122 -16 300 -21
146 -4 327 -11 402 -15 165 -8 214 0 379 62 109 40 243 74 253 63 3 -2 0 -25
-5 -51 -10 -45 -8 -52 25 -115 51 -95 48 -143 -8 -143 -28 0 -33 5 -51 52 -30
79 -33 79 -315 29 -253 -46 -296 -47 -370 -13 -71 33 -606 27 -731 -8 -20 -6
-95 -47 -165 -92 -184 -116 -185 -116 -356 -124 -151 -7 -200 0 -212 32 -4 11
8 14 62 14 37 0 84 5 104 10 50 14 122 88 178 184 l45 76 118 0 c118 0 118 0
112 23 -4 12 -10 25 -14 29 -3 4 -159 28 -346 53 -298 41 -347 45 -395 36
-139 -28 -206 -133 -225 -358 -7 -68 -6 -71 16 -78 12 -4 68 -4 123 0 56 4 97
3 93 -2 -5 -4 -32 -22 -60 -39 -59 -34 -73 -67 -35 -79 21 -6 375 -19 506 -17
71 0 123 23 212 91 95 73 249 176 275 184 29 10 282 37 335 37 l45 -1 -30 -16
c-18 -10 -71 -19 -140 -24 -111 -8 -180 -26 -265 -69 -141 -71 -134 -110 23
-126 37 -3 67 -10 67 -14 0 -4 -26 -10 -57 -13 -32 -3 -105 -17 -163 -31 -176
-42 -268 -51 -545 -50 -374 0 -524 26 -610 105 -58 54 -81 112 -110 286 -33
193 -56 285 -100 412 -67 193 -218 465 -296 536 -94 85 -221 113 -373 81 -43
-9 -80 -16 -82 -16 -2 0 -4 19 -4 43 0 97 -99 131 -470 162 -102 8 -284 26
-405 40 -222 25 -555 48 -563 40 -15 -15 104 -39 428 -85 815 -116 930 -143
930 -220 0 -15 -18 -73 -40 -129 -23 -55 -44 -123 -47 -151 -5 -46 -4 -50 15
-50 16 0 24 12 37 51 17 49 68 126 109 162 45 39 119 65 196 69 71 3 75 2 78
-19 3 -18 -2 -23 -18 -23 -11 0 -49 -9 -83 -21 -268 -90 -458 -464 -417 -819
30 -252 159 -479 316 -552 97 -45 184 -52 541 -42 l312 9 36 35 36 35 517 0
517 0 105 33 c87 27 132 34 260 42 85 6 162 13 170 16 8 3 149 11 315 19 250
11 320 18 420 40 173 37 460 111 491 127 51 25 91 136 119 332 26 179 21 231
-40 479 -30 122 -67 246 -81 275 -112 221 -595 383 -1291 431 -158 11 -337 25
-398 31 -60 6 -168 15 -240 20 -147 12 -179 17 -215 35 -14 7 -99 72 -190 145
-91 72 -211 162 -267 200 -222 147 -477 213 -991 255 -192 16 -344 19 -355 9z
m301 -131 c3 -10 -14 -13 -65 -13 -37 0 -129 -5 -203 -10 -316 -24 -460 -80
-460 -179 0 -26 -4 -31 -24 -31 -22 0 -23 2 -15 45 27 142 115 180 449 195
235 10 312 8 318 -7z m930 -119 c184 -118 432 -329 432 -368 0 -13 -11 -16
-53 -16 l-52 0 -32 58 c-35 63 -164 183 -275 257 -54 35 -88 72 -88 95 0 15 6
13 68 -26z m-700 -1084 c157 -37 253 -144 325 -365 54 -163 73 -291 57 -375
-27 -148 -153 -309 -295 -380 -66 -33 -76 -35 -170 -35 -86 0 -107 3 -150 24
-102 50 -200 177 -267 346 -30 73 -32 90 -33 195 0 104 3 123 31 202 53 147
143 280 231 341 69 48 181 67 271 47z m2023 -225 c16 -131 92 -206 241 -239
106 -24 191 -29 403 -21 177 6 205 9 210 24 4 13 16 15 60 13 61 -4 190 28
290 73 32 14 60 23 63 20 3 -2 -3 -16 -11 -29 -13 -19 -46 -34 -142 -65 -208
-68 -231 -72 -465 -78 -404 -10 -572 25 -646 136 -32 49 -54 121 -54 178 0 40
2 44 23 41 18 -2 23 -11 28 -53z"/>
<path d="M4075 4712 c-98 -60 -199 -299 -198 -467 2 -239 171 -456 387 -496
79 -14 137 -5 167 28 13 14 57 41 96 60 69 32 73 36 67 61 -15 61 -49 124 -85
157 -54 49 -72 46 -108 -17 -34 -60 -48 -138 -33 -191 10 -36 10 -37 -16 -37
-49 0 -104 21 -139 54 l-35 32 17 35 c10 19 36 54 57 79 58 66 69 93 66 158
l-3 57 -55 3 c-30 2 -99 -2 -154 -8 -71 -8 -102 -8 -109 -1 -17 17 -22 148 -7
166 19 23 67 18 165 -15 182 -62 226 -34 176 111 -70 206 -162 288 -256 231z"/>
<path d="M4374 4704 c-9 -35 -1 -94 26 -191 l22 -83 35 0 c73 0 118 52 118
137 0 51 -24 86 -89 131 -60 40 -103 43 -112 6z"/>
<path d="M4624 4361 c-18 -11 -39 -30 -48 -42 -18 -27 -22 -119 -6 -150 13
-24 61 -49 95 -49 25 0 25 1 25 73 0 74 -17 187 -29 187 -3 0 -20 -9 -37 -19z"/>
<path d="M950 5808 c-49 -112 -99 -390 -107 -598 -12 -304 54 -676 194 -1090
62 -185 102 -271 135 -294 33 -24 513 -24 546 0 12 8 22 22 22 29 0 8 -25 83
-56 167 -60 165 -122 393 -149 553 -15 86 -17 142 -11 403 8 370 10 390 45
404 14 5 81 10 148 11 136 2 142 6 96 57 -28 30 -559 303 -715 368 -106 44
-124 43 -148 -10z"/>
<path d="M2265 5611 c-133 -48 -271 -130 -278 -167 -4 -23 -2 -25 22 -19 14 3
37 14 51 24 103 74 118 82 180 93 68 12 93 28 105 66 8 27 -9 28 -80 3z"/>
<path d="M4457 5402 c-4 -6 60 -26 166 -52 338 -84 660 -181 862 -260 275
-108 301 -114 455 -106 123 6 567 45 768 67 156 17 252 2 410 -68 19 -8 15 31
-5 50 -33 29 -358 196 -450 231 -50 19 -109 44 -132 55 -46 24 -161 40 -161
23 0 -16 106 -79 195 -115 44 -17 118 -51 165 -73 102 -50 106 -48 -140 -63
-96 -6 -260 -18 -365 -26 -104 -8 -238 -15 -297 -15 l-108 0 -367 111 c-441
133 -560 168 -718 209 -129 33 -268 50 -278 32z"/>
<path d="M1952 5291 c-18 -22 -32 -51 -32 -67 0 -25 2 -26 35 -20 19 4 35 5
35 3 0 -3 -16 -31 -35 -63 -41 -67 -52 -104 -61 -194 l-7 -65 23 20 22 20 -7
-65 -7 -66 53 -41 53 -41 28 21 c43 32 70 82 78 145 l7 57 18 -40 c9 -22 20
-67 22 -100 5 -58 4 -61 -21 -73 -42 -19 -52 -53 -32 -107 10 -25 26 -50 37
-55 14 -8 17 -17 12 -43 -13 -70 -17 -72 -47 -27 -24 37 -30 41 -57 35 l-29
-7 0 61 0 60 -34 6 c-48 10 -73 -1 -85 -37 -22 -64 -4 -204 27 -202 6 1 20 2
30 3 11 0 28 22 44 54 l27 52 0 -53 c1 -56 10 -81 42 -113 26 -26 24 -30 -15
-57 -39 -27 -64 -21 -120 28 -21 19 -36 27 -36 19 0 -30 49 -116 79 -142 51
-42 94 -49 284 -42 232 8 249 11 294 47 78 62 83 62 483 -42 146 -38 300 -74
343 -79 94 -13 87 -13 87 -1 0 16 -139 77 -275 119 -71 22 -249 77 -393 121
-145 44 -286 92 -312 105 -87 44 -100 73 -165 360 -39 174 -92 341 -128 409
-35 67 -90 112 -146 121 -20 4 -47 8 -62 11 -20 4 -31 -3 -57 -35z m144 -246
c3 -13 12 -29 20 -36 8 -6 14 -26 14 -43 -1 -26 -2 -28 -11 -13 -15 26 -75 23
-82 -4 -5 -17 -9 -19 -25 -10 -11 6 -21 9 -23 7 -2 -2 -16 -6 -32 -10 -26 -6
-27 -5 -21 21 3 16 15 47 26 71 20 42 20 42 74 42 49 0 54 -2 60 -25z"/>
<path d="M2690 5323 c1 -19 29 -43 49 -43 12 0 102 -20 199 -44 97 -25 242
-59 322 -76 149 -31 253 -61 301 -86 25 -12 27 -18 22 -51 -13 -99 -47 -163
-97 -187 -21 -10 -61 -16 -108 -16 l-73 -1 24 -19 c20 -17 38 -20 121 -20 83
0 101 3 123 20 51 41 107 194 107 296 0 46 -4 55 -30 78 -31 25 -42 28 -205
46 -49 6 -193 28 -320 50 -126 21 -259 41 -295 45 -36 3 -82 8 -102 10 -21 3
-38 2 -38 -2z"/>
<path d="M4749 5146 c-33 -72 67 -245 203 -352 54 -42 138 -87 147 -79 6 7
-29 55 -97 134 -69 79 -112 158 -112 208 l0 31 63 -5 c34 -3 66 -9 71 -14 6
-5 2 -25 -9 -49 l-19 -41 45 -45 c25 -25 63 -51 85 -59 l39 -14 -32 -13 c-25
-9 -33 -19 -33 -36 0 -78 292 -210 564 -257 122 -21 188 -19 235 5 49 24 99
84 107 127 15 78 -18 118 -164 201 -288 165 -624 265 -944 279 l-137 6 -12
-27z m721 -221 c82 -42 71 -134 -17 -149 -43 -7 -205 13 -198 24 3 4 29 11 59
14 52 7 54 8 63 44 5 20 6 50 2 66 -8 28 -8 28 29 21 20 -4 48 -13 62 -20z"/>
<path d="M9705 3587 c-40 -19 -90 -76 -105 -122 -7 -21 -10 -64 -8 -98 4 -55
8 -64 41 -92 20 -17 55 -38 77 -45 43 -14 70 -42 70 -71 0 -30 -39 -69 -70
-69 -35 0 -50 18 -52 64 -1 40 -3 40 -82 30 l-46 -7 0 -40 c0 -56 19 -112 46
-138 26 -25 107 -36 169 -25 73 14 147 112 161 214 12 96 -26 152 -131 194
-66 27 -81 54 -49 89 32 36 84 13 84 -37 0 -20 5 -24 29 -24 16 0 43 3 61 6
l32 7 -4 59 c-3 47 -10 64 -31 86 -23 22 -37 27 -94 29 -42 2 -79 -2 -98 -10z"/>
<path d="M8876 3303 c-26 -159 -50 -296 -52 -305 -5 -16 3 -18 59 -18 l65 0
12 73 c10 57 20 82 49 119 20 26 39 47 42 48 3 0 14 -46 23 -102 26 -151 16
-138 102 -138 53 0 74 4 74 13 0 6 -20 92 -44 191 l-44 178 27 32 c15 17 57
68 95 114 l68 82 -85 0 -85 0 -82 -110 c-45 -60 -83 -110 -85 -110 -2 0 11 81
30 188 l6 32 -64 0 -64 0 -47 -287z"/>
<path d="M9354 3285 l-51 -305 64 0 c57 0 63 2 68 23 7 32 95 564 95 576 0 7
-25 11 -63 11 l-62 0 -51 -305z"/>
<path d="M10036 3573 c-17 -60 -67 -416 -64 -453 7 -65 34 -116 73 -134 41
-20 134 -21 178 -2 49 20 103 90 126 160 15 46 81 406 81 440 0 3 -28 6 -63 6
l-63 0 -33 -205 c-36 -216 -51 -260 -96 -271 -34 -8 -53 0 -67 32 -10 21 -6
60 20 222 18 109 32 203 32 210 0 8 -19 12 -59 12 -48 0 -61 -3 -65 -17z"/>
<path d="M10464 3285 l-51 -305 52 0 52 0 34 205 c18 113 37 199 41 192 4 -7
8 -99 8 -205 l0 -193 47 3 46 3 70 208 c38 114 72 206 74 204 3 -4 -49 -336
-62 -394 -5 -22 -2 -23 48 -23 l52 0 51 305 51 306 -85 -3 -85 -3 -61 -180
-61 -180 -3 183 -2 182 -83 0 -82 0 -51 -305z"/>
<path d="M11055 3568 c-24 -106 -66 -403 -63 -443 6 -71 34 -124 74 -141 43
-18 135 -18 177 0 49 20 103 90 126 160 15 46 81 406 81 440 0 3 -28 6 -63 6
l-63 0 -33 -205 c-36 -216 -51 -260 -96 -271 -34 -8 -53 0 -67 32 -10 21 -6
60 20 222 18 109 32 203 32 210 0 8 -19 12 -60 12 -54 0 -60 -2 -65 -22z"/>
<path d="M4462 3549 c-107 -54 -180 -232 -170 -415 7 -140 52 -194 163 -194
95 0 149 41 200 152 l24 53 -42 22 c-55 29 -63 28 -75 -7 -22 -61 -81 -96
-120 -71 -31 19 -31 142 -1 242 16 52 59 99 91 99 30 0 58 -28 58 -58 0 -25 9
-27 70 -8 38 11 46 18 48 41 5 37 -23 107 -54 136 -36 34 -133 38 -192 8z"/>
<path d="M644 3255 l-51 -305 173 0 c195 0 175 -10 189 93 l7 47 -107 0 -108
0 7 52 c4 28 9 55 12 60 3 4 47 8 99 8 104 0 97 -4 110 78 l7 42 -96 0 c-106
0 -104 -2 -90 69 l7 31 103 0 c56 0 105 3 107 8 3 4 8 33 12 65 l7 57 -169 0
-168 0 -51 -305z"/>
<path d="M1106 3533 c-7 -36 -96 -570 -96 -578 0 -4 67 -5 149 -3 171 3 186 9
231 89 20 36 25 58 25 118 0 68 -2 75 -26 93 l-26 19 33 33 c68 68 71 210 5
246 -11 5 -80 10 -155 10 l-134 0 -6 -27z"/>
<path d="M1555 3548 c-6 -19 -95 -564 -95 -583 0 -13 23 -15 169 -15 189 0
175 -6 186 83 l7 57 -107 0 -108 0 7 52 c4 28 9 55 12 60 3 4 47 8 99 8 52 0
96 3 98 8 3 4 8 31 12 60 l7 52 -96 0 c-106 0 -104 -2 -90 69 l7 31 107 0 107
0 9 65 10 65 -168 0 c-126 0 -170 -3 -173 -12z"/>
<path d="M1970 3555 c0 -8 -89 -543 -96 -577 l-6 -28 60 0 c70 0 60 -19 93
183 12 76 26 133 29 125 4 -7 20 -56 34 -108 15 -52 34 -119 43 -148 l15 -53
61 3 61 3 48 280 c26 154 47 290 47 303 1 20 -3 22 -57 22 l-58 0 -23 -142
c-12 -79 -25 -154 -28 -168 -5 -18 -19 21 -53 140 l-47 165 -61 3 c-34 2 -62
0 -62 -3z"/>
<path d="M2445 3538 c-7 -33 -95 -565 -95 -577 0 -13 336 -16 344 -3 2 4 8 36
12 70 l7 62 -108 0 -107 0 7 43 c13 82 6 77 114 77 l98 0 7 46 c10 79 16 74
-90 74 l-96 0 6 31 c3 17 6 40 6 50 0 17 9 19 109 19 l109 0 6 48 c4 26 9 55
12 65 5 16 -7 17 -165 17 -169 0 -171 0 -176 -22z"/>
<path d="M2846 3513 c-4 -27 -9 -56 -12 -65 -5 -16 4 -18 95 -18 56 0 101 -2
101 -5 0 -3 -63 -83 -139 -177 -130 -162 -140 -177 -150 -232 -6 -33 -11 -61
-11 -63 0 -2 87 -3 194 -3 l194 0 6 28 c3 15 8 44 12 64 l6 37 -117 3 -118 3
134 165 c147 183 154 195 164 263 l7 47 -180 0 -180 0 -6 -47z"/>
<path d="M3381 3538 c-5 -13 -61 -148 -125 -301 -64 -153 -116 -280 -116 -282
0 -3 28 -5 63 -5 l63 0 18 50 18 51 72 -3 71 -3 3 -47 3 -48 65 0 c47 0 64 4
64 13 0 21 -39 485 -46 545 l-5 52 -70 0 c-63 0 -70 -2 -78 -22z"/>
<path d="M3726 3548 c-7 -19 -96 -564 -96 -583 0 -12 12 -15 60 -15 68 0 60
-14 86 140 8 52 19 98 23 103 4 4 15 1 24 -6 12 -8 24 -48 39 -125 l21 -112
72 0 72 0 -18 101 c-10 56 -27 116 -37 133 l-19 32 43 37 c54 47 78 114 72
198 -7 97 -18 103 -193 107 -114 3 -146 1 -149 -10z"/>
<path d="M4917 3548 c-3 -7 -60 -143 -126 -301 -67 -159 -121 -290 -121 -293
0 -2 29 -4 64 -4 l64 0 17 50 17 51 71 -3 72 -3 3 -47 3 -48 65 0 c54 0 64 3
64 18 0 27 -39 502 -46 550 l-5 42 -69 0 c-45 0 -70 -4 -73 -12z"/>
<path d="M5256 3548 c-7 -19 -96 -564 -96 -583 0 -13 11 -15 62 -13 l62 3 21
120 c16 94 24 119 35 117 26 -6 30 -16 52 -130 l22 -112 73 0 c71 0 73 1 68
23 -3 12 -11 56 -19 97 -16 85 -30 125 -46 135 -7 4 6 22 34 46 52 46 76 105
76 190 0 47 -5 63 -24 86 -24 28 -24 28 -170 31 -115 3 -147 1 -150 -10z"/>
<path d="M5846 3273 c-26 -159 -50 -296 -52 -305 -5 -17 6 -18 131 -18 152 0
185 9 228 59 53 63 65 188 22 239 l-25 29 22 19 c33 30 58 94 58 152 0 46 -4
58 -29 83 l-29 29 -140 0 -139 0 -47 -287z"/>
<path d="M6437 3548 c-3 -7 -58 -139 -122 -293 -65 -154 -120 -286 -122 -292
-4 -10 12 -13 60 -13 l65 0 17 50 17 50 74 0 74 0 0 -50 0 -50 65 0 c61 0 65
1 65 22 0 35 -40 518 -46 556 l-5 32 -68 0 c-46 0 -71 -4 -74 -12z"/>
<path d="M6767 3553 c-3 -5 -8 -34 -12 -65 l-7 -58 101 0 102 0 -144 -178
c-124 -152 -145 -184 -151 -222 -4 -25 -10 -53 -12 -62 -5 -17 9 -18 190 -18
218 0 199 -8 212 82 l6 47 -116 3 -117 3 142 175 c77 96 142 177 144 180 2 3
6 31 10 63 l7 57 -175 0 c-97 0 -178 -3 -180 -7z"/>
<path d="M7179 3264 c-68 -163 -125 -300 -127 -305 -2 -5 26 -9 61 -9 l65 0
18 50 18 50 73 0 73 0 0 -50 0 -50 133 0 132 0 18 50 18 50 68 0 c75 0 81 -5
81 -72 0 -28 1 -28 65 -28 36 0 65 1 65 3 0 1 -11 135 -25 297 -14 162 -25
298 -25 303 0 4 -32 7 -72 5 l-71 -3 -122 -292 c-67 -161 -124 -296 -128 -300
-4 -3 -7 2 -7 13 0 33 -41 538 -46 562 -4 20 -10 22 -73 22 l-68 0 -124 -296z"/>
<path d="M8034 3255 l-51 -305 64 0 c35 0 63 1 63 3 1 18 40 230 45 237 10 17
34 -1 44 -33 5 -18 18 -71 27 -119 l17 -88 68 0 c80 0 77 -7 53 121 -16 88
-37 139 -56 139 -6 0 4 10 23 23 109 73 137 282 43 317 -14 6 -85 10 -157 10
l-132 0 -51 -305z"/>
<path d="M2635 2672 c-94 -32 -165 -106 -199 -205 -21 -62 -20 -102 3 -154 19
-41 61 -73 96 -73 25 0 15 -14 -47 -68 l-56 -49 41 0 c23 0 87 -4 143 -8 111
-9 149 -1 199 40 l29 24 -44 -16 c-41 -14 -52 -14 -136 2 -50 10 -104 15 -119
13 l-27 -6 29 30 c18 17 48 33 74 39 58 13 138 68 178 124 90 125 80 259 -22
305 -52 24 -78 24 -142 2z m111 -23 c57 -63 -25 -337 -115 -383 -42 -22 -64
-20 -91 9 -21 22 -22 31 -17 92 11 125 69 257 126 288 38 20 75 18 97 -6z"/>
<path d="M3731 2679 c-46 -9 -66 -19 -38 -19 26 0 22 -24 -34 -200 -58 -185
-59 -214 -12 -218 23 -2 39 4 60 25 16 15 22 22 13 16 -19 -15 -40 -17 -40 -4
0 4 27 95 60 202 33 106 60 197 60 201 0 9 -9 9 -69 -3z"/>
<path d="M4904 2681 c-99 -25 -189 -103 -218 -188 -49 -143 25 -257 164 -256
65 1 102 17 145 63 l30 33 -42 -30 c-77 -55 -174 -49 -202 13 -17 39 -13 128
9 187 48 127 142 193 224 156 24 -11 55 -61 57 -91 1 -11 27 85 29 103 0 3
-12 6 -27 6 -16 0 -53 3 -83 6 -30 3 -69 2 -86 -2z"/>
<path d="M7624 2681 c-99 -25 -189 -103 -218 -188 -49 -143 25 -257 164 -256
65 1 102 17 145 63 l30 33 -42 -30 c-77 -55 -174 -49 -202 13 -17 39 -13 128
9 187 48 127 142 193 224 156 24 -11 55 -61 57 -91 1 -11 27 85 29 103 0 3
-12 6 -27 6 -16 0 -53 3 -83 6 -30 3 -69 2 -86 -2z"/>
<path d="M10371 2679 c-46 -9 -66 -19 -38 -19 26 0 22 -24 -34 -200 -58 -185
-59 -214 -12 -218 23 -2 39 4 60 25 16 15 22 22 13 16 -18 -14 -40 -17 -40 -5
0 4 27 95 60 202 33 107 60 198 60 203 0 8 -10 8 -69 -4z"/>
<path d="M6260 2671 c15 -4 26 -15 28 -28 3 -18 -59 -250 -91 -342 -8 -22 -23
-39 -42 -47 -27 -12 -19 -13 80 -13 61 1 99 4 85 8 -34 9 -36 38 -7 136 l23
80 38 3 c43 4 76 -19 76 -51 0 -31 6 -18 28 61 l21 73 -35 -31 c-26 -23 -44
-30 -74 -30 -22 0 -40 5 -40 11 0 6 10 44 22 85 l21 74 64 0 c55 0 68 -4 88
-25 14 -13 25 -34 26 -47 1 -17 5 -12 14 17 27 80 37 75 -167 74 -101 -1 -172
-4 -158 -8z"/>
<path d="M8958 2670 c14 -6 22 -18 22 -33 0 -30 -96 -355 -110 -373 -6 -7 -21
-15 -33 -17 -12 -2 28 -4 88 -4 61 -1 101 1 90 4 -41 10 -45 29 -21 116 l22
81 65 1 c110 0 179 53 179 136 0 44 -35 84 -81 93 -51 10 -248 6 -221 -4z
m179 -18 c23 -15 32 -58 21 -101 -13 -51 -57 -91 -100 -91 -29 0 -30 2 -24 32
3 17 15 62 27 100 17 57 23 68 42 68 12 0 27 -4 34 -8z"/>
<path d="M4111 2586 c-18 -19 -50 -42 -72 -51 -42 -20 -51 -35 -19 -35 26 0
26 0 -10 -106 -17 -49 -29 -102 -28 -119 3 -27 7 -30 38 -32 35 -3 59 11 90
52 12 16 10 16 -11 -2 -25 -23 -49 -30 -49 -15 0 4 15 54 33 112 28 88 37 106
55 108 25 4 30 32 6 32 -11 0 -14 5 -9 18 9 25 18 72 13 72 -2 0 -19 -15 -37
-34z"/>
<path d="M8321 2586 c-18 -19 -50 -42 -72 -51 -42 -20 -51 -35 -19 -35 26 0
26 0 -10 -106 -17 -49 -29 -102 -28 -119 3 -27 7 -30 38 -32 35 -3 59 11 90
52 12 16 10 16 -11 -2 -14 -13 -31 -23 -37 -23 -14 0 -12 9 27 136 23 73 32
90 49 92 25 4 30 32 6 32 -10 0 -14 6 -10 18 11 38 18 72 14 72 -2 0 -19 -15
-37 -34z"/>
<path d="M3025 2535 c-5 -2 -27 -6 -49 -10 -33 -5 -36 -8 -21 -19 16 -11 15
-19 -15 -114 -37 -120 -37 -146 3 -150 36 -4 65 15 107 70 l34 43 -35 -32
c-34 -32 -59 -42 -59 -25 0 5 16 58 35 118 19 60 35 112 35 117 0 7 -17 8 -35
2z"/>
<path d="M3388 2518 c-87 -54 -144 -191 -108 -259 21 -38 83 -21 121 33 20 29
21 31 3 16 -11 -10 -29 -18 -39 -18 -15 0 -17 7 -13 53 11 135 122 254 120
129 0 -22 -8 -57 -17 -78 -9 -22 -19 -65 -22 -96 l-5 -58 34 0 c33 1 60 17 88
55 11 16 9 15 -12 -3 -17 -16 -28 -20 -33 -12 -5 8 38 173 62 236 4 10 -4 14
-30 14 -27 0 -37 -5 -42 -21 -7 -21 -7 -21 -19 2 -15 32 -43 34 -88 7z"/>
<path d="M3887 2530 c-36 -7 -62 -20 -39 -20 19 0 14 -29 -18 -126 -38 -111
-37 -138 7 -142 23 -2 39 4 60 25 16 15 22 22 13 16 -40 -31 -39 -9 5 128 19
60 35 113 35 119 0 11 -7 11 -63 0z"/>
<path d="M4215 2521 c-37 -11 -44 -16 -28 -19 32 -5 37 -34 38 -196 0 -129 -1
-139 -21 -152 -18 -13 -24 -12 -49 8 -21 16 -31 19 -44 11 -35 -22 -19 -73 23
-73 49 1 157 116 252 266 59 95 68 127 44 156 -15 19 -22 21 -37 12 -26 -16
-28 -44 -4 -60 12 -9 21 -23 21 -33 0 -21 -88 -161 -101 -161 -5 0 -9 34 -9
75 0 74 -16 172 -28 178 -4 2 -29 -3 -57 -12z"/>
<path d="M5218 2518 c-87 -54 -144 -191 -108 -259 21 -38 83 -21 121 33 20 29
21 31 3 16 -11 -10 -29 -18 -39 -18 -15 0 -17 7 -13 53 11 135 122 254 120
129 0 -22 -8 -57 -17 -78 -9 -22 -19 -65 -22 -96 l-5 -58 34 0 c33 1 60 17 88
55 11 16 9 15 -12 -3 -17 -16 -28 -20 -33 -12 -5 8 38 173 62 236 4 10 -4 14
-30 14 -27 0 -37 -5 -42 -21 -7 -21 -7 -21 -19 2 -15 32 -43 34 -88 7z"/>
<path d="M5510 2525 c-30 -7 -45 -13 -32 -14 30 -1 29 -32 -8 -155 -17 -55
-30 -103 -30 -108 0 -4 15 -8 34 -8 33 0 35 3 54 58 10 31 23 66 27 77 l8 20
-16 -20 c-12 -15 -10 2 9 65 15 47 28 88 31 93 5 9 -9 8 -77 -8z"/>
<path d="M5781 2529 c-66 -26 -66 -75 -1 -156 50 -62 61 -98 38 -121 -15 -15
-3 -15 25 0 64 33 64 94 2 167 -53 62 -58 95 -17 109 l27 10 -25 1 c-14 0 -36
-5 -49 -10z"/>
<path d="M6788 2524 c27 -18 29 -58 6 -135 -24 -83 -60 -139 -89 -139 -13 0
-29 8 -34 18 -19 36 30 202 73 245 21 21 5 22 -33 2 -64 -33 -121 -127 -121
-199 0 -41 41 -76 89 -76 53 0 89 15 129 53 60 57 88 143 66 202 -8 20 -56 45
-86 45 l-22 0 22 -16z"/>
<path d="M7000 2525 c-30 -7 -45 -13 -32 -14 30 -1 29 -32 -8 -156 -16 -55
-30 -103 -30 -107 0 -5 15 -8 34 -8 33 0 35 3 54 58 10 31 23 66 27 77 l8 20
-16 -20 c-15 -18 -15 -16 -2 31 8 29 22 70 30 93 16 46 18 45 -65 26z"/>
<path d="M7945 2535 c-5 -2 -27 -6 -49 -10 -33 -5 -36 -8 -21 -19 16 -11 15
-19 -15 -114 -37 -120 -37 -146 3 -150 36 -4 65 15 107 70 l34 43 -35 -32
c-34 -32 -59 -42 -59 -25 0 5 16 58 35 118 19 60 35 112 35 117 0 7 -17 8 -35
2z"/>
<path d="M8537 2526 c-58 -21 -103 -61 -131 -118 -52 -104 -25 -168 70 -168
38 0 61 7 97 30 57 36 62 48 7 20 -73 -37 -120 -19 -120 46 0 28 4 34 21 34
77 0 169 64 169 117 0 53 -37 66 -113 39z"/>
<path d="M9427 2526 c-58 -21 -103 -61 -131 -118 -52 -104 -25 -168 70 -168
38 0 61 7 97 30 57 36 62 48 7 20 -73 -37 -120 -19 -120 46 0 28 4 34 21 34
77 0 169 64 169 117 0 53 -37 66 -113 39z"/>
<path d="M9768 2524 c27 -18 29 -58 6 -135 -24 -83 -60 -139 -89 -139 -13 0
-29 8 -34 18 -19 36 30 202 73 245 21 21 5 22 -33 2 -64 -33 -121 -127 -121
-199 0 -41 41 -76 89 -76 53 0 89 15 129 53 60 57 88 143 66 202 -8 20 -56 45
-86 45 l-22 0 22 -16z"/>
<path d="M10000 2533 c-45 -7 -53 -12 -42 -26 7 -8 -5 -64 -40 -187 -52 -181
-59 -197 -93 -210 -13 -6 13 -9 70 -9 50 1 83 3 75 6 -20 8 -30 25 -25 43 2 8
9 34 15 57 9 35 13 40 33 36 21 -5 22 -5 2 10 -19 15 -19 16 9 108 28 96 55
139 87 139 21 0 39 -29 39 -63 0 -50 -32 -131 -65 -164 -27 -27 -29 -33 -15
-33 31 0 103 63 129 113 45 89 27 187 -34 187 -12 0 -39 -11 -59 -25 -20 -14
-38 -25 -40 -25 -2 0 -1 11 2 25 5 26 3 27 -48 18z"/>
<path d="M10597 2526 c-58 -21 -103 -61 -131 -118 -31 -63 -33 -106 -5 -142
17 -22 28 -26 73 -26 41 0 62 7 99 30 57 36 62 48 7 20 -73 -37 -120 -19 -120
46 0 28 4 34 21 34 77 0 169 64 169 117 0 53 -37 66 -113 39z"/>
<path d="M3141 2488 c-7 -24 -24 -63 -38 -87 -14 -24 -20 -40 -13 -36 10 6 11
1 5 -21 -5 -16 -9 -45 -9 -64 -1 -31 2 -35 27 -38 33 -4 71 18 88 50 l11 23
-21 -23 c-22 -22 -44 -22 -36 1 21 64 65 217 65 226 0 6 -15 11 -33 11 -31 0
-35 -3 -46 -42z"/>
<path d="M8061 2488 c-7 -24 -24 -63 -38 -87 -14 -24 -20 -40 -13 -36 10 6 11
1 5 -21 -5 -16 -9 -45 -9 -64 -1 -31 2 -35 27 -38 33 -4 71 18 88 50 l11 23
-21 -23 c-22 -22 -44 -22 -36 1 21 64 65 217 65 226 0 6 -15 11 -33 11 -31 0
-35 -3 -46 -42z"/>
<path d="M8629 1820 c-45 -186 -45 -190 -25 -190 20 0 26 17 65 178 24 97 46
183 49 190 2 7 -5 12 -20 12 -22 0 -26 -9 -69 -190z"/>
<path d="M8834 1971 c-40 -25 -75 -107 -82 -192 -4 -59 -2 -69 18 -89 18 -18
30 -21 57 -17 44 8 71 31 93 82 24 53 43 151 36 180 -14 55 -65 70 -122 36z"/>
<path d="M9289 1975 c-14 -8 -33 -25 -42 -38 -24 -37 -47 -126 -47 -184 0 -45
4 -55 25 -69 35 -23 87 -11 119 27 30 36 57 122 60 189 2 79 -48 112 -115 75z"/>
<path d="M9496 1890 c-57 -67 -86 -109 -86 -125 0 -24 3 -25 56 -25 l56 0 -4
-31 c-4 -27 -2 -30 21 -27 19 2 27 10 29 27 2 13 12 26 23 28 10 3 19 11 19
18 0 8 3 20 6 29 4 11 1 16 -10 16 -12 0 -15 6 -11 23 26 112 35 153 35 160 0
4 -11 7 -24 7 -19 0 -45 -24 -110 -100z"/>
<path d="M9735 1978 c-28 -15 -55 -50 -55 -70 0 -27 38 -22 64 9 27 31 56 26
56 -9 0 -15 -23 -44 -71 -89 -65 -61 -109 -113 -109 -131 0 -5 42 -8 94 -8 89
0 94 1 100 23 9 36 8 37 -46 37 l-53 0 62 58 c68 63 83 86 83 131 0 51 -71 79
-125 49z"/>
<path d="M9960 1977 c-36 -18 -66 -82 -52 -113 10 -20 8 -27 -13 -48 -28 -28
-41 -86 -26 -114 13 -24 59 -36 101 -27 61 13 107 103 76 150 -9 14 -12 25 -6
25 14 0 40 54 40 84 0 47 -65 71 -120 43z"/>
<path d="M10414 1980 c-12 -4 -31 -21 -43 -37 l-23 -28 24 -6 c16 -4 27 -1 37
12 15 20 46 25 56 9 11 -18 -6 -51 -31 -60 -30 -12 -31 -41 -3 -58 16 -10 19
-19 14 -40 -4 -15 -11 -33 -17 -39 -16 -20 -49 -15 -55 7 -6 21 -29 26 -53 10
-13 -8 -13 -13 0 -37 31 -55 101 -55 151 -2 37 40 48 93 23 120 -16 18 -16 20
-1 32 15 11 37 57 37 78 0 5 -9 18 -20 29 -21 21 -60 25 -96 10z"/>
<path d="M10628 1973 c-43 -27 -63 -94 -37 -120 8 -8 6 -14 -9 -22 -48 -26
-56 -125 -11 -150 34 -19 95 -7 125 26 29 31 41 89 25 115 -9 15 -7 24 10 48
24 31 29 84 12 101 -19 19 -86 21 -115 2z"/>
<path d="M10834 1956 c-19 -19 -34 -41 -34 -50 0 -26 42 -19 66 11 24 31 54
26 54 -9 -1 -29 -11 -41 -80 -100 -31 -26 -66 -65 -79 -88 l-23 -41 99 3 98 3
3 28 c3 26 2 27 -49 27 l-51 0 71 68 c66 62 71 70 71 109 0 50 -25 73 -78 73
-25 0 -43 -9 -68 -34z"/>
<path d="M4449 1957 c-71 -47 -114 -159 -91 -235 26 -85 139 -83 192 3 24 40
24 40 -7 49 -17 5 -26 1 -39 -19 -13 -20 -24 -25 -48 -23 -26 3 -32 8 -34 33
-5 36 14 104 36 128 20 22 59 22 71 -2 7 -13 18 -17 36 -13 33 6 37 14 24 52
-19 53 -83 66 -140 27z"/>
<path d="M4725 1966 c-66 -28 -108 -108 -109 -204 -1 -47 2 -57 28 -79 24 -21
37 -24 72 -20 23 2 53 13 68 23 36 26 76 111 83 177 5 52 4 58 -25 86 -34 34
-67 39 -117 17z m69 -119 c-2 -72 -26 -110 -72 -115 -24 -2 -32 2 -37 18 -9
30 3 91 26 129 16 27 25 32 52 29 l32 -3 -1 -58z"/>
<path d="M5752 1963 c-40 -20 -79 -83 -94 -155 -18 -87 3 -134 63 -144 48 -8
103 18 130 63 24 38 24 39 -12 48 -21 5 -27 2 -37 -20 -10 -22 -18 -26 -45
-23 l-32 3 1 58 c2 69 26 110 68 115 21 3 29 -2 33 -17 4 -17 11 -20 32 -15
36 9 39 15 30 50 -14 51 -75 68 -137 37z"/>
<path d="M6465 1973 c-62 -16 -105 -94 -113 -206 -4 -55 -2 -71 13 -87 20 -22
61 -26 100 -8 51 23 109 200 85 262 -7 20 -52 52 -63 45 -1 -1 -11 -4 -22 -6z"/>
<path d="M6910 1972 c-30 -5 -57 -28 -76 -64 -14 -28 -14 -28 15 -28 20 0 34
7 41 20 13 24 48 26 57 4 9 -24 -14 -57 -74 -104 -46 -38 -103 -111 -103 -133
0 -4 42 -7 94 -7 89 0 94 1 100 23 11 42 7 46 -46 49 l-51 3 47 36 c63 49 87
83 93 127 7 58 -29 86 -97 74z"/>
<path d="M7122 1968 c-29 -8 -72 -56 -72 -80 0 -17 56 -7 68 12 14 22 47 27
55 8 9 -25 -11 -53 -77 -111 -37 -32 -76 -76 -87 -98 l-20 -40 98 3 97 3 7 33
6 32 -51 0 -51 0 57 53 c65 59 93 112 79 151 -6 13 -13 26 -18 29 -20 11 -61
14 -91 5z"/>
<path d="M7360 1973 c-29 -5 -76 -47 -83 -74 -7 -28 48 -27 63 2 15 27 54 22
58 -7 2 -16 -14 -37 -63 -80 -62 -56 -115 -122 -115 -144 0 -6 37 -10 95 -10
69 0 95 3 95 13 0 6 3 22 6 35 6 21 3 22 -47 22 l-54 0 58 51 c32 28 64 64 72
80 38 73 -2 126 -85 112z"/>
<path d="M7600 1973 c-63 -20 -100 -70 -120 -164 -22 -101 0 -149 68 -149 75
0 138 112 102 181 -12 21 -50 25 -82 8 -19 -10 -20 -9 -14 17 13 50 66 89 66
48 0 -25 54 -14 58 12 4 31 -42 59 -78 47z"/>
<path d="M7805 1973 c-21 -5 -75 -51 -75 -64 0 -4 9 -11 20 -14 14 -5 26 0 39
16 11 14 24 20 34 16 21 -8 22 -42 2 -59 -38 -31 -45 -40 -45 -54 0 -8 9 -14
20 -14 28 0 27 -53 -1 -81 -24 -24 -43 -21 -47 9 -4 24 -6 25 -39 16 -28 -8
-31 -44 -5 -67 22 -20 78 -22 110 -3 53 29 81 118 47 146 -13 11 -12 16 10 42
27 32 33 79 13 95 -17 14 -58 21 -83 16z"/>
<path d="M8028 1942 c-20 -20 -46 -45 -57 -54 -12 -10 -21 -27 -21 -39 l0 -21
35 22 c42 26 43 24 15 -92 -11 -46 -20 -86 -20 -90 0 -5 13 -8 28 -8 29 0 29
0 62 148 18 81 35 153 38 160 10 27 -44 9 -80 -26z"/>
<path d="M8260 1972 c-56 -15 -100 -76 -100 -139 0 -55 52 -80 99 -47 23 16
23 16 16 -7 -9 -30 -37 -71 -54 -77 -7 -2 -15 5 -17 15 -7 26 -64 20 -64 -7 0
-47 66 -65 121 -33 63 38 113 211 76 266 -16 24 -49 37 -77 29z"/>
<path d="M8470 1967 c-20 -7 -44 -26 -58 -47 l-24 -35 29 -3 c19 -3 32 2 42
17 7 12 24 21 37 21 19 0 24 -5 24 -26 0 -20 -19 -44 -76 -97 -65 -61 -104
-110 -104 -132 0 -3 42 -5 94 -5 99 0 106 3 106 50 0 16 -9 19 -51 22 l-50 3
50 38 c61 47 91 93 91 139 0 54 -45 76 -110 55z"/>
<path d="M9017 1973 c-4 -3 -7 -17 -7 -30 0 -21 4 -23 55 -23 52 0 69 -10 44
-26 -18 -11 -77 -109 -99 -163 l-20 -51 29 0 c26 0 31 5 46 49 17 53 62 128
106 179 16 18 29 42 29 52 0 18 -7 20 -88 20 -49 0 -92 -3 -95 -7z"/>
<path d="M10136 1964 c-14 -38 -7 -44 49 -44 30 0 55 -2 55 -5 0 -3 -16 -27
-35 -53 -36 -50 -85 -148 -85 -169 0 -20 50 -16 57 5 22 65 64 144 99 187 22
28 43 60 46 73 6 22 4 22 -87 22 -75 0 -94 -3 -99 -16z"/>
<path d="M4916 1843 c-16 -71 -31 -138 -34 -150 -4 -20 0 -23 26 -23 30 0 31
1 48 78 9 42 19 80 23 84 4 4 17 -31 30 -77 23 -85 23 -85 56 -85 l33 0 27
118 c15 64 30 132 35 150 8 31 8 32 -24 32 l-32 0 -20 -87 c-12 -49 -23 -81
-27 -73 -3 8 -15 48 -27 88 -20 70 -22 72 -53 72 l-32 0 -29 -127z"/>
<path d="M5206 1958 c-17 -55 -16 -58 26 -58 33 0 38 -3 34 -17 -9 -30 -46
-193 -46 -203 0 -6 13 -10 30 -10 33 0 34 3 65 149 l18 81 38 0 c22 0 39 1 39
3 0 1 4 17 9 35 l10 32 -110 0 c-79 0 -111 -3 -113 -12z"/>
<path d="M5436 1826 c-42 -80 -76 -147 -76 -150 0 -3 14 -6 30 -6 23 0 33 6
42 25 10 23 17 26 57 23 39 -3 46 -6 49 -25 3 -18 10 -23 33 -23 28 0 29 2 29
43 0 24 -3 92 -7 150 l-6 107 -38 0 -37 0 -76 -144z"/>
<path d="M5947 1963 c-2 -5 -7 -20 -11 -35 -6 -27 -5 -28 32 -28 l39 0 -27
-115 -27 -115 33 0 c37 0 33 -8 64 133 l22 97 38 0 c31 0 39 4 44 23 12 47 11
47 -98 47 -58 0 -107 -3 -109 -7z"/>
<path d="M6617 1963 c-2 -5 -7 -20 -11 -35 l-6 -28 60 0 60 0 -34 -47 c-35
-50 -78 -131 -90 -170 -6 -20 -4 -23 21 -23 25 0 30 6 47 53 21 60 66 137 107
185 16 18 29 42 29 52 0 18 -7 20 -89 20 -50 0 -92 -3 -94 -7z"/>
<path d="M2120 1952 c0 -15 109 -114 216 -194 56 -42 281 -192 500 -334 304
-196 438 -276 561 -335 752 -364 1534 -589 2162 -623 94 -5 94 -5 75 15 -15
15 -61 26 -199 49 -972 162 -2006 638 -2793 1287 -168 138 -165 137 -359 141
-97 2 -163 0 -163 -6z"/>
<path d="M2780 1941 c0 -27 55 -73 225 -187 269 -181 570 -354 616 -354 28 0
134 77 193 141 31 33 56 64 56 69 0 19 -96 88 -282 201 -108 65 -215 126 -238
134 -34 12 -99 15 -306 15 -252 0 -264 -1 -264 -19z"/>
<path d="M3963 1524 c-153 -129 -173 -149 -173 -173 0 -45 261 -177 640 -323
352 -135 873 -298 954 -298 16 0 62 93 70 142 7 37 7 37 -51 67 -32 16 -191
79 -354 140 -163 60 -349 135 -415 164 -345 158 -485 232 -504 268 -8 14 -6
27 6 50 19 38 12 79 -16 79 -10 0 -81 -52 -157 -116z"/>
<path d="M8445 1592 c-16 -10 -99 -76 -183 -145 -327 -271 -495 -381 -622
-408 -48 -10 -53 -9 -115 25 -35 19 -67 31 -70 26 -11 -17 77 -222 113 -262
32 -38 108 -15 339 101 161 80 251 133 339 200 84 63 284 252 350 331 83 98
69 130 -61 144 -48 5 -66 3 -90 -12z"/>
<path d="M5558 1028 c-9 -40 -25 -110 -37 -155 -19 -71 -21 -86 -9 -109 30
-62 104 -85 338 -105 200 -17 961 -17 1080 -1 152 22 347 61 432 88 78 25 79
26 74 55 -3 16 -9 42 -12 58 -12 67 -56 76 -191 42 -116 -30 -401 -69 -599
-82 -134 -9 -217 -9 -357 0 -257 16 -561 55 -592 75 -34 22 -52 61 -65 139
-10 53 -16 67 -30 67 -13 0 -20 -16 -32 -72z"/>
</g>
</svg>
